# Blender 5.2.1 LTS
# www.blender.org
o RockChunk1
v 0.000000 -0.062500 0.000000
v 0.201892 -0.062500 0.158593
v -0.070020 -0.062500 0.233002
v -0.218189 -0.062500 0.000000
v -0.073239 -0.062500 -0.243713
v 0.178541 -0.062500 -0.140250
v 0.064274 0.076949 0.213881
v -0.174800 0.079933 0.137311
v -0.157282 0.071923 -0.123550
v 0.078953 0.094523 -0.262729
v 0.235360 0.087071 0.000000
v 0.000000 0.179862 0.000000
v -0.035922 -0.062500 0.119538
v 0.116223 -0.062500 0.091297
v 0.063735 -0.062500 0.212083
v 0.197684 -0.062500 0.000000
v 0.114315 -0.062500 -0.089798
v -0.153167 -0.062500 0.000000
v -0.167877 -0.062500 0.131874
v -0.037953 -0.062500 -0.126294
v -0.157891 -0.062500 -0.124029
v 0.066958 -0.062500 -0.222806
v 0.220471 0.000000 0.077451
v 0.216938 0.000000 -0.076210
v 0.000000 0.000000 0.291779
v 0.153033 0.000000 0.227736
v -0.225550 0.000000 0.079236
v -0.134564 0.000000 0.200251
v -0.159885 0.000000 -0.237933
v -0.211481 0.000000 -0.074293
v 0.136202 0.000000 -0.202688
v 0.000000 0.000000 -0.253684
v 0.194157 0.109744 0.152518
v -0.063628 0.094156 0.211725
v -0.181944 0.083200 0.000000
v -0.066642 0.098615 -0.221753
v 0.149239 0.084355 -0.117233
v 0.039507 0.153060 0.131466
v 0.130239 0.155919 0.000000
v -0.127800 0.189118 0.100391
v -0.118275 0.175023 -0.092908
v 0.036419 0.141096 -0.121190
vn -0.0000 -1.0000 -0.0000
vn 0.9488 -0.3147 -0.0252
vn 0.1038 -0.7406 0.6639
vn -0.8145 -0.4899 0.3108
vn -0.5551 -0.7333 -0.3926
vn 0.5522 -0.3715 -0.7463
vn 0.8829 0.2519 0.3962
vn -0.5564 -0.1459 0.8180
vn -0.9958 -0.0016 -0.0913
vn -0.0979 -0.0438 -0.9942
vn 0.8424 0.0335 -0.5378
vn 0.1202 0.7471 0.6538
vn -0.5322 0.4677 0.7057
vn -0.8908 0.4007 -0.2144
vn -0.0664 0.9417 -0.3298
vn 0.5048 0.7708 -0.3887
vn 0.1750 0.9518 -0.2519
vn 0.4190 0.8036 -0.4227
vn 0.4482 0.8804 -0.1550
vn 0.1622 0.9530 -0.2561
vn 0.1045 0.8732 -0.4760
vn -0.7179 0.4335 -0.5448
vn 0.0157 0.9973 -0.0719
vn -0.8550 0.5124 -0.0795
vn -0.9099 0.4110 0.0571
vn 0.1830 0.9726 0.1433
vn 0.0495 0.7738 0.6315
vn 0.0891 0.7449 0.6612
vn 0.1789 0.9732 0.1446
vn 0.2412 0.9522 0.1872
vn 0.5477 0.8363 0.0236
vn 0.7562 0.3330 -0.5632
vn 0.7786 0.3832 -0.4970
vn 0.8735 0.2731 -0.4029
vn -0.2652 0.1301 -0.9554
vn -0.0950 0.2480 -0.9641
vn -0.6313 0.6629 -0.4025
vn -0.8449 0.4905 -0.2134
vn -0.9132 0.3989 -0.0837
vn -0.8610 0.5054 0.0568
vn -0.5545 0.3244 0.7664
vn -0.5352 0.3073 0.7868
vn 0.0786 0.6760 0.7327
vn 0.2770 0.4704 0.8378
vn 0.9106 -0.0612 0.4086
vn 0.9659 0.0591 0.2521
vn 0.3275 -0.3573 -0.8747
vn 0.3493 -0.0867 -0.9330
vn 0.1400 -0.3139 -0.9391
vn -0.8487 0.4563 -0.2676
vn -0.8255 -0.5007 -0.2603
vn -0.8282 -0.3897 -0.4027
vn -0.7973 0.0707 0.5994
vn -0.7787 -0.2255 0.5855
vn -0.6723 -0.3534 0.6505
vn 0.3294 0.5216 0.7870
vn 0.3040 -0.6163 0.7265
vn 0.2889 -0.5997 0.7462
vn 0.9819 -0.1880 -0.0226
vn 0.9477 -0.3185 -0.0218
vn 0.8967 -0.4255 -0.1224
s 0
f 1//1 14//1 13//1
f 2//1 14//1 16//1
f 1//1 13//1 18//1
f 1//1 18//1 20//1
f 1//1 20//1 17//1
f 2//2 16//2 23//2
f 3//3 15//3 25//3
f 4//4 19//4 27//4
f 5//5 21//5 29//5
f 6//6 22//6 31//6
f 2//7 23//7 26//7
f 3//8 25//8 28//8
f 4//9 27//9 30//9
f 5//10 29//10 32//10
f 6//11 31//11 24//11
f 7//12 33//12 38//12
f 8//13 34//13 40//13
f 9//14 35//14 41//14
f 10//15 36//15 42//15
f 11//16 37//16 39//16
f 39//17 42//17 12//17
f 39//18 37//18 42//18
f 37//19 10//19 42//19
f 42//20 41//20 12//20
f 42//21 36//21 41//21
f 36//22 9//22 41//22
f 41//23 40//23 12//23
f 41//24 35//24 40//24
f 35//25 8//25 40//25
f 40//26 38//26 12//26
f 40//27 34//27 38//27
f 34//28 7//28 38//28
f 38//29 39//29 12//29
f 38//30 33//30 39//30
f 33//31 11//31 39//31
f 24//32 37//32 11//32
f 24//33 31//33 37//33
f 31//34 10//34 37//34
f 32//35 36//35 10//35
f 32//36 29//36 36//36
f 29//37 9//37 36//37
f 30//38 35//38 9//38
f 30//39 27//39 35//39
f 27//40 8//40 35//40
f 28//41 34//41 8//41
f 28//42 25//42 34//42
f 25//43 7//43 34//43
f 26//44 33//44 7//44
f 26//45 23//45 33//45
f 23//46 11//46 33//46
f 31//47 32//47 10//47
f 31//48 22//48 32//48
f 22//49 5//49 32//49
f 29//50 30//50 9//50
f 29//51 21//51 30//51
f 21//52 4//52 30//52
f 27//53 28//53 8//53
f 27//54 19//54 28//54
f 19//55 3//55 28//55
f 25//56 26//56 7//56
f 25//57 15//57 26//57
f 15//58 2//58 26//58
f 23//59 24//59 11//59
f 23//60 16//60 24//60
f 16//61 6//61 24//61
f 17//1 22//1 6//1
f 17//1 20//1 22//1
f 20//1 5//1 22//1
f 20//1 21//1 5//1
f 20//1 18//1 21//1
f 18//1 4//1 21//1
f 18//1 19//1 4//1
f 18//1 13//1 19//1
f 13//1 3//1 19//1
f 16//1 17//1 6//1
f 16//1 14//1 17//1
f 14//1 1//1 17//1
f 13//1 15//1 3//1
f 13//1 14//1 15//1
f 14//1 2//1 15//1
