# Blender 5.2.1 LTS
# www.blender.org
o RockChunk2
v 0.000000 -0.050000 0.000000
v 0.118884 -0.050000 0.104449
v -0.048855 -0.050000 0.181830
v -0.172492 -0.050000 0.000000
v -0.052412 -0.050000 -0.195070
v 0.139542 -0.050000 -0.122599
v 0.054837 0.073113 0.204094
v -0.130917 0.066670 0.115021
v -0.130049 0.066228 -0.114258
v 0.055175 0.073564 -0.205353
v 0.180914 0.074536 0.000000
v 0.000000 0.148756 0.000000
v -0.027609 -0.050000 0.102756
v 0.083345 -0.050000 0.073225
v 0.049044 -0.050000 0.182528
v 0.152192 -0.050000 0.000000
v 0.074547 -0.050000 -0.065495
v -0.105282 -0.050000 0.000000
v -0.129470 -0.050000 0.113750
v -0.031509 -0.050000 -0.117271
v -0.125720 -0.050000 -0.110456
v 0.045319 -0.050000 -0.168665
v 0.167281 0.000000 0.065727
v 0.161036 0.000000 -0.063273
v 0.000000 0.000000 0.222624
v 0.109607 0.000000 0.182433
v -0.151945 0.000000 0.059701
v -0.113418 0.000000 0.188775
v -0.114198 0.000000 -0.190074
v -0.165397 0.000000 -0.064986
v 0.120273 0.000000 -0.200186
v 0.000000 0.000000 -0.246204
v 0.118054 0.074312 0.103721
v -0.044582 0.073470 0.165922
v -0.161979 0.082489 0.000000
v -0.043557 0.071781 -0.162107
v 0.131768 0.082944 -0.115769
v 0.025268 0.109021 0.094043
v 0.088375 0.117824 0.000000
v -0.074645 0.123014 0.065582
v -0.075309 0.124107 -0.066165
v 0.033792 0.145797 -0.125767
vn -0.0000 -1.0000 -0.0000
vn 0.7853 -0.5662 0.2504
vn -0.0055 -0.6289 0.7775
vn -0.9347 -0.0380 0.3535
vn -0.5706 -0.6557 -0.4944
vn 0.2778 -0.7746 -0.5682
vn 0.7939 -0.4646 0.3923
vn -0.2555 -0.4489 0.8563
vn -0.9573 0.2701 0.1033
vn -0.4014 -0.4145 -0.8167
vn 0.9558 -0.0732 -0.2846
vn 0.3226 0.9220 0.2142
vn -0.3555 0.7914 0.4973
vn -0.5768 0.7706 -0.2709
vn -0.3112 0.6606 -0.6832
vn 0.4210 0.9000 -0.1134
vn 0.3296 0.9418 0.0664
vn 0.5428 0.8384 -0.0491
vn 0.5024 0.7031 -0.5032
vn -0.2399 0.9669 -0.0872
vn -0.4371 0.7209 -0.5378
vn -0.3454 0.7711 -0.5349
vn -0.3186 0.9479 0.0095
vn -0.4269 0.9043 0.0097
vn -0.5599 0.7869 0.2594
vn 0.0197 0.9229 0.3846
vn -0.0006 0.8966 0.4429
vn -0.1265 0.9325 0.3383
vn 0.3155 0.9015 0.2961
vn 0.3083 0.9055 0.2916
vn 0.4102 0.8769 0.2505
vn 0.9196 0.0811 -0.3845
vn 0.9467 0.1557 -0.2819
vn 0.6256 0.5122 -0.5885
vn -0.3204 0.6321 -0.7055
vn -0.3472 0.6169 -0.7064
vn -0.4005 0.6470 -0.6489
vn -0.9167 0.2701 -0.2946
vn -0.9933 -0.0433 0.1072
vn -0.9596 0.0787 0.2700
vn -0.4364 0.6135 0.6581
vn -0.2489 0.4926 0.8339
vn -0.3186 0.4504 0.8341
vn 0.7626 0.4275 0.4854
vn 0.8415 0.3448 0.4159
vn 0.8186 0.2883 0.4967
vn 0.3466 0.2431 -0.9060
vn 0.2375 -0.7473 -0.6207
vn 0.1621 -0.7835 -0.5999
vn -0.9053 0.2075 -0.3706
vn -0.8623 -0.3633 -0.3529
vn -0.8619 -0.3520 -0.3650
vn -0.9562 0.0648 0.2854
vn -0.9512 -0.1207 0.2839
vn -0.4703 -0.6846 0.5569
vn 0.3442 -0.0203 0.9387
vn 0.3179 -0.3835 0.8671
vn 0.5536 -0.6696 0.4952
vn 0.9744 -0.2198 -0.0472
vn 0.9717 -0.2314 -0.0470
vn 0.9512 -0.2925 -0.0981
s 0
f 1//1 14//1 13//1
f 2//1 14//1 16//1
f 1//1 13//1 18//1
f 1//1 18//1 20//1
f 1//1 20//1 17//1
f 2//2 16//2 23//2
f 3//3 15//3 25//3
f 4//4 19//4 27//4
f 5//5 21//5 29//5
f 6//6 22//6 31//6
f 2//7 23//7 26//7
f 3//8 25//8 28//8
f 4//9 27//9 30//9
f 5//10 29//10 32//10
f 6//11 31//11 24//11
f 7//12 33//12 38//12
f 8//13 34//13 40//13
f 9//14 35//14 41//14
f 10//15 36//15 42//15
f 11//16 37//16 39//16
f 39//17 42//17 12//17
f 39//18 37//18 42//18
f 37//19 10//19 42//19
f 42//20 41//20 12//20
f 42//21 36//21 41//21
f 36//22 9//22 41//22
f 41//23 40//23 12//23
f 41//24 35//24 40//24
f 35//25 8//25 40//25
f 40//26 38//26 12//26
f 40//27 34//27 38//27
f 34//28 7//28 38//28
f 38//29 39//29 12//29
f 38//30 33//30 39//30
f 33//31 11//31 39//31
f 24//32 37//32 11//32
f 24//33 31//33 37//33
f 31//34 10//34 37//34
f 32//35 36//35 10//35
f 32//36 29//36 36//36
f 29//37 9//37 36//37
f 30//38 35//38 9//38
f 30//39 27//39 35//39
f 27//40 8//40 35//40
f 28//41 34//41 8//41
f 28//42 25//42 34//42
f 25//43 7//43 34//43
f 26//44 33//44 7//44
f 26//45 23//45 33//45
f 23//46 11//46 33//46
f 31//47 32//47 10//47
f 31//48 22//48 32//48
f 22//49 5//49 32//49
f 29//50 30//50 9//50
f 29//51 21//51 30//51
f 21//52 4//52 30//52
f 27//53 28//53 8//53
f 27//54 19//54 28//54
f 19//55 3//55 28//55
f 25//56 26//56 7//56
f 25//57 15//57 26//57
f 15//58 2//58 26//58
f 23//59 24//59 11//59
f 23//60 16//60 24//60
f 16//61 6//61 24//61
f 17//1 22//1 6//1
f 17//1 20//1 22//1
f 20//1 5//1 22//1
f 20//1 21//1 5//1
f 20//1 18//1 21//1
f 18//1 4//1 21//1
f 18//1 19//1 4//1
f 18//1 13//1 19//1
f 13//1 3//1 19//1
f 16//1 17//1 6//1
f 16//1 14//1 17//1
f 14//1 1//1 17//1
f 13//1 15//1 3//1
f 13//1 14//1 15//1
f 14//1 2//1 15//1
