# Blender 5.2.1 LTS
# www.blender.org
o RockChunk0
v 0.000000 -0.075000 0.000000
v 0.237244 -0.075000 0.180666
v -0.088609 -0.075000 0.285848
v -0.226017 -0.075000 0.000000
v -0.089488 -0.075000 -0.288684
v 0.204398 -0.075000 -0.155653
v 0.086446 0.115304 0.278871
v -0.234227 0.119330 0.178369
v -0.227389 0.115847 -0.173161
v 0.078603 0.104842 -0.253568
v 0.281186 0.115894 0.000000
v 0.000000 0.232178 0.000000
v -0.053204 -0.075000 0.171633
v 0.123117 -0.075000 0.093756
v 0.075580 -0.075000 0.243809
v 0.277369 -0.075000 0.000000
v 0.131969 -0.075000 -0.100497
v -0.150143 -0.075000 0.000000
v -0.187213 -0.075000 0.142567
v -0.049217 -0.075000 -0.158770
v -0.187750 -0.075000 -0.142977
v 0.076877 -0.075000 -0.247992
v 0.294083 0.000000 0.100153
v 0.288300 0.000000 -0.098184
v 0.000000 0.000000 0.293296
v 0.157846 0.000000 0.227718
v -0.315071 0.000000 0.107301
v -0.151659 0.000000 0.218792
v -0.186850 0.000000 -0.269560
v -0.274593 0.000000 -0.093516
v 0.186598 0.000000 -0.269198
v 0.000000 0.000000 -0.289695
v 0.244553 0.154003 0.186234
v -0.074857 0.123413 0.241477
v -0.219178 0.111663 0.000000
v -0.075736 0.124861 -0.244310
v 0.195067 0.122840 -0.148548
v 0.046568 0.201002 0.150225
v 0.176313 0.235163 0.000000
v -0.137156 0.226122 0.104447
v -0.133673 0.220381 -0.101795
v 0.051020 0.220221 -0.164589
vn -0.0000 -1.0000 -0.0000
vn 0.8707 -0.4523 0.1934
vn 0.2311 -0.3627 0.9028
vn -0.5300 -0.8357 0.1442
vn -0.6060 -0.6825 -0.4087
vn 0.3971 -0.7359 -0.5484
vn 0.6606 0.2567 0.7055
vn -0.4048 0.3964 0.8240
vn -0.7354 -0.6612 -0.1482
vn -0.1064 0.1137 -0.9878
vn 0.7468 -0.4951 -0.4441
vn 0.1037 0.8423 0.5289
vn -0.2769 0.7042 0.6537
vn -0.7609 0.6468 0.0517
vn 0.0325 0.6152 -0.7877
vn 0.6962 0.6121 -0.3750
vn -0.0169 0.9968 -0.0776
vn 0.5302 0.7072 -0.4678
vn 0.4797 0.6049 -0.6356
vn -0.0265 0.9964 -0.0806
vn -0.2036 0.7730 -0.6009
vn -0.3309 0.7162 -0.6145
vn -0.0660 0.9974 -0.0289
vn -0.7992 0.6003 -0.0302
vn -0.7677 0.6341 -0.0920
vn 0.0903 0.9803 0.1754
vn -0.0445 0.7896 0.6121
vn -0.0915 0.8154 0.5716
vn -0.0166 0.9780 0.2081
vn 0.1567 0.9251 0.3457
vn 0.7509 0.6603 0.0126
vn 0.7930 0.4214 -0.4400
vn 0.7859 0.4049 -0.4674
vn 0.4853 0.5954 -0.6403
vn -0.0131 0.3345 -0.9423
vn -0.1027 0.2842 -0.9533
vn -0.3912 0.5039 -0.7701
vn -0.9115 0.4079 0.0531
vn -0.8212 0.5461 -0.1655
vn -0.7977 0.5958 -0.0929
vn -0.3688 0.0590 0.9276
vn -0.4383 0.1088 0.8922
vn -0.2044 0.2710 0.9406
vn 0.5155 -0.0600 0.8548
vn 0.6717 -0.1849 0.7174
vn 0.9627 0.2301 0.1423
vn 0.1057 0.2522 -0.9619
vn 0.0999 -0.4033 -0.9096
vn 0.2278 -0.2843 -0.9313
vn -0.8935 0.0579 -0.4453
vn -0.7187 -0.5960 -0.3582
vn -0.7010 -0.6880 -0.1876
vn -0.5602 -0.1095 0.8211
vn -0.4891 -0.4968 0.7169
vn -0.8099 -0.1825 0.5574
vn 0.3781 -0.1696 0.9101
vn 0.3745 -0.2174 0.9014
vn 0.3568 -0.1954 0.9135
vn 0.9959 0.0857 -0.0290
vn 0.9831 -0.1808 -0.0287
vn 0.7461 -0.5666 -0.3498
s 0
f 1//1 14//1 13//1
f 2//1 14//1 16//1
f 1//1 13//1 18//1
f 1//1 18//1 20//1
f 1//1 20//1 17//1
f 2//2 16//2 23//2
f 3//3 15//3 25//3
f 4//4 19//4 27//4
f 5//5 21//5 29//5
f 6//6 22//6 31//6
f 2//7 23//7 26//7
f 3//8 25//8 28//8
f 4//9 27//9 30//9
f 5//10 29//10 32//10
f 6//11 31//11 24//11
f 7//12 33//12 38//12
f 8//13 34//13 40//13
f 9//14 35//14 41//14
f 10//15 36//15 42//15
f 11//16 37//16 39//16
f 39//17 42//17 12//17
f 39//18 37//18 42//18
f 37//19 10//19 42//19
f 42//20 41//20 12//20
f 42//21 36//21 41//21
f 36//22 9//22 41//22
f 41//23 40//23 12//23
f 41//24 35//24 40//24
f 35//25 8//25 40//25
f 40//26 38//26 12//26
f 40//27 34//27 38//27
f 34//28 7//28 38//28
f 38//29 39//29 12//29
f 38//30 33//30 39//30
f 33//31 11//31 39//31
f 24//32 37//32 11//32
f 24//33 31//33 37//33
f 31//34 10//34 37//34
f 32//35 36//35 10//35
f 32//36 29//36 36//36
f 29//37 9//37 36//37
f 30//38 35//38 9//38
f 30//39 27//39 35//39
f 27//40 8//40 35//40
f 28//41 34//41 8//41
f 28//42 25//42 34//42
f 25//43 7//43 34//43
f 26//44 33//44 7//44
f 26//45 23//45 33//45
f 23//46 11//46 33//46
f 31//47 32//47 10//47
f 31//48 22//48 32//48
f 22//49 5//49 32//49
f 29//50 30//50 9//50
f 29//51 21//51 30//51
f 21//52 4//52 30//52
f 27//53 28//53 8//53
f 27//54 19//54 28//54
f 19//55 3//55 28//55
f 25//56 26//56 7//56
f 25//57 15//57 26//57
f 15//58 2//58 26//58
f 23//59 24//59 11//59
f 23//60 16//60 24//60
f 16//61 6//61 24//61
f 17//1 22//1 6//1
f 17//1 20//1 22//1
f 20//1 5//1 22//1
f 20//1 21//1 5//1
f 20//1 18//1 21//1
f 18//1 4//1 21//1
f 18//1 19//1 4//1
f 18//1 13//1 19//1
f 13//1 3//1 19//1
f 16//1 17//1 6//1
f 16//1 14//1 17//1
f 14//1 1//1 17//1
f 13//1 15//1 3//1
f 13//1 14//1 15//1
f 14//1 2//1 15//1
